<svg width="25" height="32" viewBox="0 0 25 32" fill="none" xmlns="http://www.w3.org/2000/svg">
<path opacity="0.7" d="M10.4388 1.17936C10.9249 0.693251 11.4839 0.450195 12.1159 0.450195C12.7478 0.450195 13.2826 0.693251 13.7201 1.17936C14.2062 1.61686 14.4492 2.15158 14.4492 2.78353C14.4492 2.78353 14.4492 2.88075 14.4492 3.0752C16.4909 3.60992 18.168 4.75228 19.4805 6.50228C20.793 8.25228 21.4492 10.221 21.4492 12.4085V22.6169C21.4492 23.3946 21.8381 23.7835 22.6159 23.7835H23.7826V26.1169H15.3971C15.543 26.5058 15.6159 26.8946 15.6159 27.2835C15.6159 28.2558 15.2756 29.0821 14.5951 29.7627C13.9145 30.4433 13.0881 30.7835 12.1159 30.7835C11.1437 30.7835 10.3173 30.4433 9.63672 29.7627C8.95616 29.0821 8.61589 28.2558 8.61589 27.2835C8.61589 26.8946 8.6888 26.5058 8.83464 26.1169H0.449219V23.7835H1.61589C2.39366 23.7835 2.78255 23.3946 2.78255 22.6169V12.1169C2.78255 9.97797 3.4388 8.08214 4.7513 6.42936C6.11241 4.72797 7.7895 3.60992 9.78255 3.0752C9.78255 2.88075 9.78255 2.78353 9.78255 2.78353C9.78255 2.15158 10.0013 1.61686 10.4388 1.17936ZM11.6055 5.11686C9.75825 5.2627 8.20269 6.01617 6.9388 7.37728C5.72353 8.68978 5.11589 10.2696 5.11589 12.1169V22.6169C5.11589 23.0058 5.04297 23.3946 4.89714 23.7835H19.3346C19.1888 23.3946 19.1159 23.0058 19.1159 22.6169V12.4085C19.1159 10.4641 18.4596 8.787 17.1471 7.37728C15.8346 5.91895 14.2305 5.16547 12.3346 5.11686H12.1159H11.8242H11.6055ZM13.2826 27.2835C13.2826 26.5058 12.8937 26.1169 12.1159 26.1169C11.3381 26.1169 10.9492 26.5058 10.9492 27.2835C10.9492 28.0613 11.3381 28.4502 12.1159 28.4502C12.8937 28.4502 13.2826 28.0613 13.2826 27.2835Z" fill="#022002" stroke="white" stroke-width="0.9"/>
</svg>
