<svg width="46" height="43" viewBox="0 0 46 43" fill="none" xmlns="http://www.w3.org/2000/svg">
<g opacity="0.95" filter="url(#filter0_n_459_6319)">
<path d="M0 0H41C43.7614 0 46 2.23858 46 5V38C46 40.7614 43.7614 43 41 43H0V0Z" fill="white"/>
</g>
<g filter="url(#filter1_d_459_6319)">
<path d="M25.0219 12.3283C25.0219 11.9974 24.8903 11.6801 24.6563 11.4461C24.4223 11.2122 24.1049 11.0805 23.7741 11.0805H23.2257C22.8949 11.0805 22.5774 11.2122 22.3435 11.4461C22.1095 11.6801 21.9779 11.9974 21.9779 12.3283V12.5537C21.9773 13.2102 21.8032 13.8559 21.4747 14.4242C21.1462 14.9923 20.6745 15.4645 20.1063 15.7926L20.1051 15.7914L19.5725 16.1021L19.5689 16.1046C19 16.4329 18.3541 16.6054 17.6972 16.6054C17.0403 16.6053 16.3945 16.433 15.8255 16.1046L15.6757 16.0241L15.6391 16.0047C15.3528 15.8395 15.0128 15.795 14.6935 15.8804C14.4139 15.9551 14.1701 16.1239 14.0026 16.3568L13.9356 16.4604L13.6614 16.9344C13.4973 17.2202 13.4533 17.5591 13.5383 17.8776C13.6131 18.157 13.782 18.401 14.0148 18.5685L14.1184 18.6355L14.1854 18.6769L14.3718 18.8012C14.9073 19.1256 15.3532 19.5777 15.6683 20.1196C15.9967 20.6845 16.1713 21.3258 16.1753 21.9792V22.6177L16.1679 22.8639C16.1324 23.4378 15.9657 23.9973 15.6781 24.4978C15.3528 25.0638 14.884 25.5332 14.3206 25.8627L14.3219 25.8639L14.1342 25.976L14.1184 25.9857C13.8323 26.1514 13.6237 26.4243 13.5383 26.7436C13.4533 27.062 13.4973 27.4011 13.6614 27.6868L13.9344 28.1608C14.1 28.4468 14.3742 28.6555 14.6935 28.7408C15.0128 28.8261 15.3528 28.7816 15.6391 28.6165L15.6757 28.5971L15.8255 28.5166L16.0424 28.4009C16.5561 28.1476 17.1223 28.0158 17.6972 28.0158C18.272 28.0158 18.8384 28.1479 19.352 28.4009L19.5689 28.5166L19.5725 28.5191L20.1051 28.8285C20.6733 29.1567 21.1462 29.629 21.4747 30.197C21.8032 30.7653 21.9773 31.4109 21.9779 32.0674V32.2929C21.9779 32.6238 22.1095 32.9411 22.3435 33.1751C22.5774 33.409 22.8949 33.5407 23.2257 33.5407H23.7741C24.1049 33.5407 24.4223 33.409 24.6563 33.1751C24.8903 32.9411 25.0219 32.6238 25.0219 32.2929V32.0674L25.0303 31.8213C25.0685 31.2505 25.2377 30.6942 25.5251 30.197C25.8125 29.7 26.2097 29.2768 26.6852 28.9589L26.8935 28.8285L27.4272 28.5191L27.431 28.5166L27.6478 28.4009C28.1614 28.1479 28.7278 28.0158 29.3026 28.0158C29.9595 28.0158 30.6053 28.1882 31.1743 28.5166L31.3607 28.6165C31.647 28.7816 31.987 28.8261 32.3063 28.7408C32.6256 28.6555 32.8985 28.4468 33.0642 28.1608L33.3311 27.6868L33.3372 27.6771L33.3932 27.5661C33.5112 27.305 33.5361 27.0095 33.4615 26.7302C33.376 26.4111 33.1673 26.1392 32.8814 25.9735L32.7328 25.8944C32.7206 25.8879 32.7082 25.8818 32.6962 25.8748C32.125 25.545 31.6503 25.0698 31.3217 24.4978C30.993 23.926 30.8219 23.2773 30.8246 22.6177V21.9986C30.8228 21.3408 30.9939 20.6937 31.3217 20.1234C31.6468 19.5575 32.1148 19.0867 32.6779 18.7573L32.8656 18.6452L32.8814 18.6355L32.985 18.5685C33.2178 18.401 33.3868 18.157 33.4615 17.8776C33.5465 17.5591 33.5024 17.2202 33.3383 16.9344L33.0642 16.4592C32.8985 16.1731 32.6256 15.9658 32.3063 15.8804C32.0268 15.8056 31.7317 15.8305 31.4704 15.9486L31.3607 16.0047C31.3488 16.0115 31.3363 16.0177 31.3242 16.0241L31.1731 16.1034L31.1743 16.1046C30.6053 16.433 29.9595 16.6053 29.3026 16.6054C28.6457 16.6054 27.9998 16.4329 27.431 16.1046L27.4272 16.1021L26.8935 15.7914C26.3253 15.4633 25.8536 14.9923 25.5251 14.4242C25.1965 13.8559 25.0225 13.2102 25.0219 12.5537V12.3283ZM27.5174 12.5513L27.5284 12.7146C27.5499 12.8763 27.6034 13.0331 27.6856 13.1752C27.7677 13.3173 27.8767 13.4415 28.0061 13.5408L28.1449 13.6334L28.6775 13.9429C28.867 14.0523 29.0836 14.1098 29.3026 14.1098C29.5215 14.1097 29.737 14.0523 29.9265 13.9429L29.9631 13.9222L30.1495 13.8222C31.001 13.3433 32.0061 13.2163 32.9509 13.4689C33.789 13.693 34.5199 14.2001 35.0224 14.8982L35.2235 15.2089L35.4976 15.6842L35.4989 15.6854L35.6682 16.0144C36.0223 16.7981 36.0969 17.6841 35.873 18.5222C35.6184 19.4742 34.9974 20.2858 34.1475 20.7838L34.1487 20.7849L33.944 20.9081C33.7536 21.018 33.5954 21.1769 33.4858 21.3674C33.3764 21.5579 33.3193 21.774 33.3201 21.9938V22.6274C33.3193 22.8471 33.3764 23.0633 33.4858 23.2538C33.5936 23.4415 33.749 23.5973 33.9355 23.707L34.0939 23.7923L34.1329 23.8143L34.4436 24.0153C35.1414 24.5178 35.6489 25.2478 35.873 26.0856C36.128 27.0394 35.994 28.0548 35.5037 28.9114L35.505 28.9126L35.2307 29.4L35.2235 29.4122C34.7264 30.2703 33.9088 30.8961 32.9509 31.1523C32.006 31.4049 31.001 31.2757 30.1495 30.7965V30.7989L29.9631 30.6991C29.9509 30.6925 29.9385 30.6852 29.9265 30.6784C29.737 30.5689 29.5215 30.5114 29.3026 30.5114C29.0836 30.5114 28.8683 30.5689 28.6787 30.6784L28.6775 30.6771L28.1449 30.9878L28.0061 31.0804C27.8767 31.1797 27.7677 31.3039 27.6856 31.446C27.5761 31.6354 27.5177 31.851 27.5174 32.0699V32.2929C27.5174 33.2855 27.1238 34.2375 26.422 34.9395C25.72 35.6415 24.7668 36.0362 23.7741 36.0362H23.2257C22.2329 36.0362 21.2799 35.6415 20.5778 34.9395C19.8761 34.2375 19.4824 33.2855 19.4824 32.2929V32.0699L19.4714 31.9066C19.4499 31.745 19.3964 31.5881 19.3142 31.446C19.232 31.3039 19.1231 31.1797 18.9937 31.0804L18.8548 30.9878L18.3211 30.6771C18.1315 30.5677 17.9161 30.5114 17.6972 30.5114C17.5331 30.5114 17.3714 30.5441 17.2208 30.6064L17.0733 30.6784C17.0613 30.6852 17.049 30.6925 17.0368 30.6991L16.8503 30.7989L16.8491 30.7965C15.9977 31.2752 14.9935 31.4048 14.0489 31.1523C13.2107 30.9282 12.4799 30.4211 11.9774 29.7229L11.7763 29.4122L11.5022 28.937L11.5009 28.9358C11.0056 28.077 10.8709 27.0568 11.1268 26.099C11.3814 25.1472 12.0014 24.3341 12.8511 23.8363L13.0558 23.7131L13.1923 23.6218C13.3222 23.5219 13.4318 23.3968 13.514 23.2538C13.6234 23.0633 13.6806 22.8471 13.6797 22.6274V21.9938L13.6687 21.8317C13.6467 21.6709 13.5924 21.5148 13.5103 21.3735C13.4282 21.2325 13.3198 21.109 13.1911 21.0104L13.0558 20.9202L12.9876 20.8776L12.8011 20.7534C11.9779 20.253 11.3762 19.4548 11.1268 18.5222C10.8709 17.5644 11.0056 16.5442 11.5009 15.6854L11.5022 15.683L11.7763 15.2089L11.9774 14.8982C12.4799 14.2001 13.2107 13.693 14.0489 13.4689C14.9934 13.2164 15.9978 13.345 16.8491 13.8235L16.8503 13.8222L17.0368 13.9222L17.0733 13.9429L17.2208 14.0148C17.3714 14.0771 17.5331 14.1098 17.6972 14.1098C17.8615 14.1098 18.024 14.0772 18.1749 14.0148L18.3211 13.9429L18.8548 13.6334L18.9937 13.5408C19.1231 13.4415 19.232 13.3173 19.3142 13.1752C19.4236 12.986 19.482 12.771 19.4824 12.5525V12.3283C19.4824 11.3357 19.8761 10.3836 20.5778 9.68165C21.2799 8.97964 22.2329 8.58496 23.2257 8.58496H23.7741C24.7668 8.58496 25.72 8.97964 26.422 9.68165C27.1238 10.3836 27.5174 11.3357 27.5174 12.3283V12.5513Z" fill="#224E22"/>
<path d="M25.9984 22.3124C25.9984 20.9341 24.8812 19.8169 23.5029 19.8169C22.1246 19.8169 21.0073 20.9341 21.0073 22.3124C21.0073 23.6907 22.1246 24.808 23.5029 24.808C24.8812 24.808 25.9984 23.6907 25.9984 22.3124ZM28.494 22.3124C28.494 25.0689 26.2593 27.3036 23.5029 27.3036C20.7463 27.3036 18.5117 25.0689 18.5117 22.3124C18.5117 19.5559 20.7463 17.3213 23.5029 17.3213C26.2593 17.3213 28.494 19.5559 28.494 22.3124Z" fill="#224E22"/>
</g>
<defs>
<filter id="filter0_n_459_6319" x="0" y="0" width="46" height="43" filterUnits="userSpaceOnUse" color-interpolation-filters="sRGB">
<feFlood flood-opacity="0" result="BackgroundImageFix"/>
<feBlend mode="normal" in="SourceGraphic" in2="BackgroundImageFix" result="shape"/>
<feTurbulence type="fractalNoise" baseFrequency="2 2" stitchTiles="stitch" numOctaves="3" result="noise" seed="7299" />
<feColorMatrix in="noise" type="luminanceToAlpha" result="alphaNoise" />
<feComponentTransfer in="alphaNoise" result="coloredNoise1">
<feFuncA type="discrete" tableValues="1 1 1 1 1 1 1 1 1 1 1 1 1 1 1 1 1 1 1 1 1 1 1 1 1 1 1 1 1 1 1 1 1 1 1 1 1 1 1 1 1 1 1 1 1 1 1 1 1 1 1 0 0 0 0 0 0 0 0 0 0 0 0 0 0 0 0 0 0 0 0 0 0 0 0 0 0 0 0 0 0 0 0 0 0 0 0 0 0 0 0 0 0 0 0 0 0 0 0 0 "/>
</feComponentTransfer>
<feComposite operator="in" in2="shape" in="coloredNoise1" result="noise1Clipped" />
<feFlood flood-color="rgba(255, 255, 255, 0.09)" result="color1Flood" />
<feComposite operator="in" in2="noise1Clipped" in="color1Flood" result="color1" />
<feMerge result="effect1_noise_459_6319">
<feMergeNode in="shape" />
<feMergeNode in="color1" />
</feMerge>
</filter>
<filter id="filter1_d_459_6319" x="8.51518" y="8.58496" width="29.9696" height="32.4208" filterUnits="userSpaceOnUse" color-interpolation-filters="sRGB">
<feFlood flood-opacity="0" result="BackgroundImageFix"/>
<feColorMatrix in="SourceAlpha" type="matrix" values="0 0 0 0 0 0 0 0 0 0 0 0 0 0 0 0 0 0 127 0" result="hardAlpha"/>
<feOffset dy="2.48482"/>
<feGaussianBlur stdDeviation="1.24241"/>
<feComposite in2="hardAlpha" operator="out"/>
<feColorMatrix type="matrix" values="0 0 0 0 0 0 0 0 0 0 0 0 0 0 0 0 0 0 0.12 0"/>
<feBlend mode="normal" in2="BackgroundImageFix" result="effect1_dropShadow_459_6319"/>
<feBlend mode="normal" in="SourceGraphic" in2="effect1_dropShadow_459_6319" result="shape"/>
</filter>
</defs>
</svg>
