<svg width="46" height="43" viewBox="0 0 46 43" fill="none" xmlns="http://www.w3.org/2000/svg">
<g opacity="0.95" filter="url(#filter0_n_459_6269)">
<path d="M0 0H41C43.7614 0 46 2.23858 46 5V38C46 40.7614 43.7614 43 41 43H0V0Z" fill="white"/>
</g>
<g filter="url(#filter1_d_459_6269)">
<path d="M11 32.9716L11 10.7801C11 9.67651 11.4387 8.61849 12.2191 7.83816C12.9995 7.05784 14.0576 6.61914 15.1612 6.61914L27.6448 6.61914L27.7816 6.62591C28.0992 6.65738 28.3979 6.79782 28.6255 7.02548L35.5608 13.9603C35.821 14.2204 35.9672 14.5731 35.9672 14.941L35.9672 32.9716C35.9672 34.0752 35.5285 35.1332 34.7481 35.9135C33.9678 36.6938 32.9097 37.1325 31.806 37.1325H15.1612C14.0576 37.1325 12.9995 36.6938 12.2191 35.9135C11.4387 35.1332 11 34.075 11 32.9716ZM13.7741 32.9716C13.7741 33.3394 13.9204 33.6921 14.1805 33.9522C14.4406 34.2124 14.7933 34.3585 15.1612 34.3585H31.806C32.1739 34.3585 32.5266 34.2124 32.7867 33.9522C33.0469 33.6921 33.1931 33.3394 33.1931 32.9716L33.1931 15.5153L27.0704 9.39308L15.1612 9.39308C14.7933 9.39308 14.4406 9.53931 14.1805 9.79942C13.9204 10.0595 13.7741 10.4122 13.7741 10.7801L13.7741 32.9716Z" fill="#224E22"/>
<path d="M24.9023 13.5199V7.97194C24.9023 7.20594 25.5233 6.58496 26.2893 6.58496C27.0553 6.58496 27.6763 7.20594 27.6763 7.97194V13.5199C27.6763 13.8877 27.8225 14.2404 28.0827 14.5005C28.3427 14.7606 28.6954 14.9069 29.0633 14.9069H34.6112C35.3772 14.9069 35.9981 15.5278 35.9981 16.2938C35.9981 17.0598 35.3772 17.6808 34.6112 17.6808H29.0633C27.9598 17.6808 26.9017 17.2421 26.1214 16.4618C25.341 15.6815 24.9023 14.6234 24.9023 13.5199Z" fill="#224E22"/>
<path d="M20.7 16.3115C21.466 16.3115 22.087 16.9325 22.087 17.6985C22.087 18.4645 21.466 19.0855 20.7 19.0855H17.926C17.16 19.0855 16.5391 18.4645 16.5391 17.6985C16.5391 16.9325 17.16 16.3115 17.926 16.3115H20.7Z" fill="#224E22"/>
<path d="M29.0414 21.875C29.8076 21.875 30.4288 22.4959 30.4288 23.262C30.4288 24.028 29.8076 24.6489 29.0414 24.6489L17.9421 24.6489C17.1759 24.6489 16.5547 24.028 16.5547 23.262C16.5547 22.4959 17.1759 21.875 17.9421 21.875L29.0414 21.875Z" fill="#224E22"/>
<path d="M29.0414 27.458C29.8076 27.458 30.4288 28.079 30.4288 28.845C30.4288 29.611 29.8076 30.232 29.0414 30.232L17.9421 30.232C17.1759 30.232 16.5547 29.611 16.5547 28.845C16.5547 28.079 17.1759 27.458 17.9421 27.458L29.0414 27.458Z" fill="#224E22"/>
</g>
<defs>
<filter id="filter0_n_459_6269" x="0" y="0" width="46" height="43" filterUnits="userSpaceOnUse" color-interpolation-filters="sRGB">
<feFlood flood-opacity="0" result="BackgroundImageFix"/>
<feBlend mode="normal" in="SourceGraphic" in2="BackgroundImageFix" result="shape"/>
<feTurbulence type="fractalNoise" baseFrequency="2 2" stitchTiles="stitch" numOctaves="3" result="noise" seed="7299" />
<feColorMatrix in="noise" type="luminanceToAlpha" result="alphaNoise" />
<feComponentTransfer in="alphaNoise" result="coloredNoise1">
<feFuncA type="discrete" tableValues="1 1 1 1 1 1 1 1 1 1 1 1 1 1 1 1 1 1 1 1 1 1 1 1 1 1 1 1 1 1 1 1 1 1 1 1 1 1 1 1 1 1 1 1 1 1 1 1 1 1 1 0 0 0 0 0 0 0 0 0 0 0 0 0 0 0 0 0 0 0 0 0 0 0 0 0 0 0 0 0 0 0 0 0 0 0 0 0 0 0 0 0 0 0 0 0 0 0 0 0 "/>
</feComponentTransfer>
<feComposite operator="in" in2="shape" in="coloredNoise1" result="noise1Clipped" />
<feFlood flood-color="rgba(255, 255, 255, 0.09)" result="color1Flood" />
<feComposite operator="in" in2="noise1Clipped" in="color1Flood" result="color1" />
<feMerge result="effect1_noise_459_6269">
<feMergeNode in="shape" />
<feMergeNode in="color1" />
</feMerge>
</filter>
<filter id="filter1_d_459_6269" x="8.51518" y="6.58496" width="29.9696" height="35.517" filterUnits="userSpaceOnUse" color-interpolation-filters="sRGB">
<feFlood flood-opacity="0" result="BackgroundImageFix"/>
<feColorMatrix in="SourceAlpha" type="matrix" values="0 0 0 0 0 0 0 0 0 0 0 0 0 0 0 0 0 0 127 0" result="hardAlpha"/>
<feOffset dy="2.48482"/>
<feGaussianBlur stdDeviation="1.24241"/>
<feComposite in2="hardAlpha" operator="out"/>
<feColorMatrix type="matrix" values="0 0 0 0 0 0 0 0 0 0 0 0 0 0 0 0 0 0 0.12 0"/>
<feBlend mode="normal" in2="BackgroundImageFix" result="effect1_dropShadow_459_6269"/>
<feBlend mode="normal" in="SourceGraphic" in2="effect1_dropShadow_459_6269" result="shape"/>
</filter>
</defs>
</svg>
