<svg width="46" height="43" viewBox="0 0 46 43" fill="none" xmlns="http://www.w3.org/2000/svg">
<g opacity="0.95" filter="url(#filter0_n_459_6250)">
<path d="M0 0H41C43.7614 0 46 2.23858 46 5V38C46 40.7614 43.7614 43 41 43H0V0Z" fill="white"/>
</g>
<g filter="url(#filter1_d_459_6250)">
<path d="M12.9861 12.0572C15.6909 9.35241 18.9177 8 22.6665 8C26.4153 8 29.6184 9.35241 32.2758 12.0572C34.9806 14.7146 36.333 17.9177 36.333 21.6665C36.333 25.4153 34.9806 28.6421 32.2758 31.3469C29.6184 34.0043 26.4153 35.333 22.6665 35.333C18.9177 35.333 15.6909 34.0043 12.9861 31.3469C10.3287 28.6421 9 25.4153 9 21.6665C9 17.9177 10.3287 14.7146 12.9861 12.0572ZM30.7098 13.6232C28.4795 11.3929 25.7984 10.2778 22.6665 10.2778C19.5346 10.2778 16.8535 11.3929 14.6232 13.6232C12.3929 15.8535 11.2778 18.5346 11.2778 21.6665C11.2778 24.7984 12.3929 27.4795 14.6232 29.7098C16.8535 31.9401 19.5346 33.0553 22.6665 33.0553C25.7984 33.0553 28.4795 31.9401 30.7098 29.7098C32.9401 27.4795 34.0553 24.7984 34.0553 21.6665C34.0553 18.5346 32.9401 15.8535 30.7098 13.6232ZM21.8123 11.7725C22.0496 11.5353 22.3343 11.4166 22.6665 11.4166C22.9987 11.4166 23.2597 11.5353 23.4495 11.7725C23.6867 11.9623 23.8054 12.2233 23.8054 12.5555C23.8054 12.8877 23.6867 13.1724 23.4495 13.4097C23.2597 13.5995 22.9987 13.6944 22.6665 13.6944C22.3343 13.6944 22.0496 13.5995 21.8123 13.4097C21.6225 13.1724 21.5276 12.8877 21.5276 12.5555C21.5276 12.2233 21.6225 11.9623 21.8123 11.7725ZM15.4062 14.4774C15.6434 14.2401 15.9044 14.1215 16.1892 14.1215C16.5213 14.1215 16.806 14.2401 17.0433 14.4774C17.2806 14.6672 17.3992 14.9282 17.3992 15.2603C17.3992 15.545 17.2806 15.806 17.0433 16.0433C16.806 16.2806 16.5213 16.3992 16.1892 16.3992C15.9044 16.3992 15.6434 16.2806 15.4062 16.0433C15.2164 15.806 15.1215 15.545 15.1215 15.2603C15.1215 14.9282 15.2164 14.6672 15.4062 14.4774ZM28.2897 14.4062L29.9268 16.0433L24.8731 21.0971C24.9205 21.2869 24.9443 21.4767 24.9443 21.6665C24.9443 22.2834 24.707 22.8291 24.2325 23.3036C23.8054 23.7307 23.2834 23.9443 22.6665 23.9443C22.0496 23.9443 21.5039 23.7307 21.0294 23.3036C20.6023 22.8291 20.3888 22.2834 20.3888 21.6665C20.3888 21.0496 20.6023 20.5276 21.0294 20.1006C21.5039 19.626 22.0496 19.3888 22.6665 19.3888C22.8563 19.3888 23.0461 19.4125 23.2359 19.4599L28.2897 14.4062ZM12.7013 20.8835C12.9386 20.6463 13.2233 20.5276 13.5555 20.5276C13.8877 20.5276 14.1487 20.6463 14.3385 20.8835C14.5757 21.0733 14.6944 21.3343 14.6944 21.6665C14.6944 21.9987 14.5757 22.2834 14.3385 22.5207C14.1487 22.7105 13.8877 22.8054 13.5555 22.8054C13.2233 22.8054 12.9386 22.7105 12.7013 22.5207C12.5115 22.2834 12.4166 21.9987 12.4166 21.6665C12.4166 21.3343 12.5115 21.0733 12.7013 20.8835ZM30.9234 20.8835C31.1606 20.6463 31.4453 20.5276 31.7775 20.5276C32.1097 20.5276 32.3707 20.6463 32.5605 20.8835C32.7978 21.0733 32.9164 21.3343 32.9164 21.6665C32.9164 21.9987 32.7978 22.2834 32.5605 22.5207C32.3707 22.7105 32.1097 22.8054 31.7775 22.8054C31.4453 22.8054 31.1606 22.7105 30.9234 22.5207C30.7335 22.2834 30.6386 21.9987 30.6386 21.6665C30.6386 21.3343 30.7335 21.0733 30.9234 20.8835ZM15.4062 27.2897C15.6434 27.0524 15.9044 26.9338 16.1892 26.9338C16.5213 26.9338 16.806 27.0524 17.0433 27.2897C17.2806 27.527 17.3992 27.8117 17.3992 28.1439C17.3992 28.4286 17.2806 28.6896 17.0433 28.9268C16.806 29.1166 16.5213 29.2116 16.1892 29.2116C15.9044 29.2116 15.6434 29.1166 15.4062 28.9268C15.2164 28.6896 15.1215 28.4286 15.1215 28.1439C15.1215 27.8117 15.2164 27.527 15.4062 27.2897ZM28.2897 27.2897C28.527 27.0524 28.788 26.9338 29.0727 26.9338C29.4049 26.9338 29.6658 27.0524 29.8557 27.2897C30.0929 27.527 30.2116 27.8117 30.2116 28.1439C30.2116 28.4286 30.0929 28.6896 29.8557 28.9268C29.6658 29.1166 29.4049 29.2116 29.0727 29.2116C28.788 29.2116 28.527 29.1166 28.2897 28.9268C28.0524 28.6896 27.9338 28.4286 27.9338 28.1439C27.9338 27.8117 28.0524 27.527 28.2897 27.2897Z" fill="#224E22"/>
</g>
<defs>
<filter id="filter0_n_459_6250" x="0" y="0" width="46" height="43" filterUnits="userSpaceOnUse" color-interpolation-filters="sRGB">
<feFlood flood-opacity="0" result="BackgroundImageFix"/>
<feBlend mode="normal" in="SourceGraphic" in2="BackgroundImageFix" result="shape"/>
<feTurbulence type="fractalNoise" baseFrequency="2 2" stitchTiles="stitch" numOctaves="3" result="noise" seed="7299" />
<feColorMatrix in="noise" type="luminanceToAlpha" result="alphaNoise" />
<feComponentTransfer in="alphaNoise" result="coloredNoise1">
<feFuncA type="discrete" tableValues="1 1 1 1 1 1 1 1 1 1 1 1 1 1 1 1 1 1 1 1 1 1 1 1 1 1 1 1 1 1 1 1 1 1 1 1 1 1 1 1 1 1 1 1 1 1 1 1 1 1 1 0 0 0 0 0 0 0 0 0 0 0 0 0 0 0 0 0 0 0 0 0 0 0 0 0 0 0 0 0 0 0 0 0 0 0 0 0 0 0 0 0 0 0 0 0 0 0 0 0 "/>
</feComponentTransfer>
<feComposite operator="in" in2="shape" in="coloredNoise1" result="noise1Clipped" />
<feFlood flood-color="rgba(255, 255, 255, 0.09)" result="color1Flood" />
<feComposite operator="in" in2="noise1Clipped" in="color1Flood" result="color1" />
<feMerge result="effect1_noise_459_6250">
<feMergeNode in="shape" />
<feMergeNode in="color1" />
</feMerge>
</filter>
<filter id="filter1_d_459_6250" x="6.51518" y="8" width="32.3017" height="32.3026" filterUnits="userSpaceOnUse" color-interpolation-filters="sRGB">
<feFlood flood-opacity="0" result="BackgroundImageFix"/>
<feColorMatrix in="SourceAlpha" type="matrix" values="0 0 0 0 0 0 0 0 0 0 0 0 0 0 0 0 0 0 127 0" result="hardAlpha"/>
<feOffset dy="2.48482"/>
<feGaussianBlur stdDeviation="1.24241"/>
<feComposite in2="hardAlpha" operator="out"/>
<feColorMatrix type="matrix" values="0 0 0 0 0 0 0 0 0 0 0 0 0 0 0 0 0 0 0.12 0"/>
<feBlend mode="normal" in2="BackgroundImageFix" result="effect1_dropShadow_459_6250"/>
<feBlend mode="normal" in="SourceGraphic" in2="effect1_dropShadow_459_6250" result="shape"/>
</filter>
</defs>
</svg>
