<svg width="46" height="43" viewBox="0 0 46 43" fill="none" xmlns="http://www.w3.org/2000/svg">
<g opacity="0.95" filter="url(#filter0_n_459_6303)">
<path d="M0 0H41C43.7614 0 46 2.23858 46 5V38C46 40.7614 43.7614 43 41 43H0V0Z" fill="white"/>
</g>
<g filter="url(#filter1_d_459_6303)">
<path d="M26.4932 9.37379C26.9338 8.93317 27.6306 8.90598 28.1032 9.29152L28.1949 9.37379L33.0089 14.1878L33.0913 14.2795C33.4767 14.7522 33.4495 15.449 33.0089 15.8896L28.1949 20.7036C27.725 21.1736 26.9632 21.1736 26.4932 20.7036C26.0231 20.2336 26.0231 19.4718 26.4932 19.0018L30.4562 15.0387L26.4932 11.0756L26.4109 10.9839C26.0253 10.5112 26.0525 9.81441 26.4932 9.37379Z" fill="#224E22"/>
<path d="M32.1275 13.835C32.7922 13.835 33.331 14.3738 33.331 15.0385C33.331 15.7031 32.7922 16.242 32.1275 16.242L12.8715 16.242C12.2068 16.242 11.668 15.7031 11.668 15.0385C11.668 14.3738 12.2068 13.835 12.8715 13.835L32.1275 13.835Z" fill="#224E22"/>
<path d="M16.8988 21.3842C17.3715 20.9988 18.0683 21.026 18.509 21.4666C18.9496 21.9072 18.9768 22.604 18.5912 23.0767L18.509 23.1683L14.5459 27.1314L18.509 31.0946L18.5912 31.1863C18.9768 31.6589 18.9496 32.3557 18.509 32.7963C18.0683 33.237 17.3715 33.2642 16.8988 32.8786L16.8071 32.7963L11.9931 27.9823C11.5231 27.5123 11.5231 26.7505 11.9931 26.2806L16.8071 21.4666L16.8988 21.3842Z" fill="#224E22"/>
<path d="M32.1275 25.9277C32.7922 25.9277 33.331 26.4665 33.331 27.1312C33.331 27.7959 32.7922 28.3347 32.1275 28.3347L12.8715 28.3347C12.2068 28.3347 11.668 27.7959 11.668 27.1312C11.668 26.4665 12.2068 25.9277 12.8715 25.9277L32.1275 25.9277Z" fill="#224E22"/>
</g>
<defs>
<filter id="filter0_n_459_6303" x="0" y="0" width="46" height="43" filterUnits="userSpaceOnUse" color-interpolation-filters="sRGB">
<feFlood flood-opacity="0" result="BackgroundImageFix"/>
<feBlend mode="normal" in="SourceGraphic" in2="BackgroundImageFix" result="shape"/>
<feTurbulence type="fractalNoise" baseFrequency="2 2" stitchTiles="stitch" numOctaves="3" result="noise" seed="7299" />
<feColorMatrix in="noise" type="luminanceToAlpha" result="alphaNoise" />
<feComponentTransfer in="alphaNoise" result="coloredNoise1">
<feFuncA type="discrete" tableValues="1 1 1 1 1 1 1 1 1 1 1 1 1 1 1 1 1 1 1 1 1 1 1 1 1 1 1 1 1 1 1 1 1 1 1 1 1 1 1 1 1 1 1 1 1 1 1 1 1 1 1 0 0 0 0 0 0 0 0 0 0 0 0 0 0 0 0 0 0 0 0 0 0 0 0 0 0 0 0 0 0 0 0 0 0 0 0 0 0 0 0 0 0 0 0 0 0 0 0 0 "/>
</feComponentTransfer>
<feComposite operator="in" in2="shape" in="coloredNoise1" result="noise1Clipped" />
<feFlood flood-color="rgba(255, 255, 255, 0.09)" result="color1Flood" />
<feComposite operator="in" in2="noise1Clipped" in="color1Flood" result="color1" />
<feMerge result="effect1_noise_459_6303">
<feMergeNode in="shape" />
<feMergeNode in="color1" />
</feMerge>
</filter>
<filter id="filter1_d_459_6303" x="9.15581" y="9.02148" width="26.6884" height="29.0971" filterUnits="userSpaceOnUse" color-interpolation-filters="sRGB">
<feFlood flood-opacity="0" result="BackgroundImageFix"/>
<feColorMatrix in="SourceAlpha" type="matrix" values="0 0 0 0 0 0 0 0 0 0 0 0 0 0 0 0 0 0 127 0" result="hardAlpha"/>
<feOffset dy="2.48482"/>
<feGaussianBlur stdDeviation="1.24241"/>
<feComposite in2="hardAlpha" operator="out"/>
<feColorMatrix type="matrix" values="0 0 0 0 0 0 0 0 0 0 0 0 0 0 0 0 0 0 0.12 0"/>
<feBlend mode="normal" in2="BackgroundImageFix" result="effect1_dropShadow_459_6303"/>
<feBlend mode="normal" in="SourceGraphic" in2="effect1_dropShadow_459_6303" result="shape"/>
</filter>
</defs>
</svg>
