<svg width="46" height="43" viewBox="0 0 46 43" fill="none" xmlns="http://www.w3.org/2000/svg">
<g opacity="0.95" filter="url(#filter0_n_459_6257)">
<path d="M0 0H41C43.7614 0 46 2.23858 46 5V38C46 40.7614 43.7614 43 41 43H0V0Z" fill="white"/>
</g>
<g filter="url(#filter1_d_459_6257)">
<path d="M17.9545 20.6816C18.3345 20.6816 18.6893 20.8715 18.9 21.1877L20.8355 24.0907H24.1645L26.1 21.1877L26.1855 21.0756C26.3998 20.8273 26.7128 20.6816 27.0455 20.6816L33.8636 20.6816C34.4912 20.6816 35 21.1904 35 21.818C35 22.4456 34.4912 22.9544 33.8636 22.9544L27.6536 22.9544L25.7182 25.8574C25.5075 26.1736 25.1527 26.3635 24.7727 26.3635H20.2273C19.8947 26.3635 19.5815 26.2178 19.3672 25.9695L19.2818 25.8574L17.3464 22.9544H11.1364C10.5088 22.9544 10 22.4456 10 21.818C10 21.1904 10.5088 20.6816 11.1364 20.6816L17.9545 20.6816Z" fill="#224E22"/>
<path d="M32.7273 22.0808L28.9275 14.4913L28.9253 14.488C28.8313 14.2989 28.6864 14.1399 28.5069 14.0286C28.3724 13.9451 28.2222 13.8907 28.0664 13.8688L27.9089 13.8577L17.0912 13.8577C16.8799 13.8579 16.6726 13.9172 16.493 14.0286C16.3136 14.1399 16.1687 14.2989 16.0747 14.488L16.0724 14.4913L12.2727 22.0808V28.6304C12.2727 28.9318 12.3925 29.2208 12.6056 29.4338C12.8188 29.647 13.1077 29.7668 13.4091 29.7668L31.5909 29.7668C31.8923 29.7668 32.1813 29.647 32.3943 29.4338C32.6075 29.2208 32.7273 28.9318 32.7273 28.6304V22.0808ZM35 28.6304C35 29.5346 34.6406 30.4014 34.0012 31.0408C33.3619 31.6801 32.4951 32.0395 31.5909 32.0395H13.4091C12.5049 32.0395 11.6381 31.6801 10.9988 31.0408C10.3594 30.4014 10 29.5345 10 28.6304L10 21.8122C10 21.6359 10.041 21.4618 10.1199 21.3039L14.0405 13.4737C14.3228 12.9071 14.7576 12.4302 15.2956 12.0966C15.8345 11.7624 16.456 11.5853 17.0901 11.585L27.9099 11.585L28.1464 11.5938C28.6976 11.6325 29.2326 11.8041 29.7043 12.0966C30.2423 12.4301 30.6761 12.9073 30.9584 13.4737L34.8801 21.3039L34.9323 21.425C34.9772 21.5487 35 21.6798 35 21.8122V28.6304Z" fill="#224E22"/>
</g>
<defs>
<filter id="filter0_n_459_6257" x="0" y="0" width="46" height="43" filterUnits="userSpaceOnUse" color-interpolation-filters="sRGB">
<feFlood flood-opacity="0" result="BackgroundImageFix"/>
<feBlend mode="normal" in="SourceGraphic" in2="BackgroundImageFix" result="shape"/>
<feTurbulence type="fractalNoise" baseFrequency="2 2" stitchTiles="stitch" numOctaves="3" result="noise" seed="7299" />
<feColorMatrix in="noise" type="luminanceToAlpha" result="alphaNoise" />
<feComponentTransfer in="alphaNoise" result="coloredNoise1">
<feFuncA type="discrete" tableValues="1 1 1 1 1 1 1 1 1 1 1 1 1 1 1 1 1 1 1 1 1 1 1 1 1 1 1 1 1 1 1 1 1 1 1 1 1 1 1 1 1 1 1 1 1 1 1 1 1 1 1 0 0 0 0 0 0 0 0 0 0 0 0 0 0 0 0 0 0 0 0 0 0 0 0 0 0 0 0 0 0 0 0 0 0 0 0 0 0 0 0 0 0 0 0 0 0 0 0 0 "/>
</feComponentTransfer>
<feComposite operator="in" in2="shape" in="coloredNoise1" result="noise1Clipped" />
<feFlood flood-color="rgba(255, 255, 255, 0.09)" result="color1Flood" />
<feComposite operator="in" in2="noise1Clipped" in="color1Flood" result="color1" />
<feMerge result="effect1_noise_459_6257">
<feMergeNode in="shape" />
<feMergeNode in="color1" />
</feMerge>
</filter>
<filter id="filter1_d_459_6257" x="7.51518" y="11.585" width="29.9696" height="25.4242" filterUnits="userSpaceOnUse" color-interpolation-filters="sRGB">
<feFlood flood-opacity="0" result="BackgroundImageFix"/>
<feColorMatrix in="SourceAlpha" type="matrix" values="0 0 0 0 0 0 0 0 0 0 0 0 0 0 0 0 0 0 127 0" result="hardAlpha"/>
<feOffset dy="2.48482"/>
<feGaussianBlur stdDeviation="1.24241"/>
<feComposite in2="hardAlpha" operator="out"/>
<feColorMatrix type="matrix" values="0 0 0 0 0 0 0 0 0 0 0 0 0 0 0 0 0 0 0.12 0"/>
<feBlend mode="normal" in2="BackgroundImageFix" result="effect1_dropShadow_459_6257"/>
<feBlend mode="normal" in="SourceGraphic" in2="effect1_dropShadow_459_6257" result="shape"/>
</filter>
</defs>
</svg>
