<svg width="75" height="75" viewBox="0 0 75 75" fill="none" xmlns="http://www.w3.org/2000/svg">
<g clip-path="url(#clip0_434_3746)">
<path fill-rule="evenodd" clip-rule="evenodd" d="M52.7725 60.7205C52.3771 60.7205 52.0696 60.369 52.0696 59.9736V50C52.0696 49.3409 51.4984 48.8137 50.8393 48.8137C50.2242 48.8137 49.653 49.3409 49.653 50C49.653 50.3954 49.3455 50.7469 48.9061 50.7469C48.5107 50.7469 48.2031 50.3954 48.2031 50C48.2031 48.5501 49.3894 47.3198 50.8393 47.3198C52.3332 47.3198 53.5195 48.5501 53.5195 50V59.9736C53.5195 60.369 53.168 60.7205 52.7725 60.7205Z" fill="#171A1F"/>
<path fill-rule="evenodd" clip-rule="evenodd" d="M48.9044 52.9443C48.509 52.9443 48.2014 52.6367 48.2014 52.2413V47.9355C48.2014 47.2765 47.6742 46.7492 47.0151 46.7492C46.3561 46.7492 45.8288 47.2765 45.8288 47.9355C45.8288 48.331 45.5213 48.6385 45.0819 48.6385C44.6865 48.6385 44.3789 48.331 44.3789 47.9355C44.3789 46.4856 45.5652 45.2993 47.0151 45.2993C48.509 45.2993 49.6513 46.4417 49.6513 47.9355V52.2413C49.6513 52.6367 49.2998 52.9443 48.9044 52.9443Z" fill="#171A1F"/>
<path fill-rule="evenodd" clip-rule="evenodd" d="M45.0802 52.2847C44.6847 52.2847 44.3772 51.9772 44.3772 51.5817V45.2988C44.3772 44.6397 43.806 44.0686 43.147 44.0686C42.5318 44.0686 42.0046 44.6397 42.0046 45.2988C42.0046 45.6942 41.697 46.0018 41.2577 46.0018C40.8622 46.0018 40.5547 45.6942 40.5547 45.2988C40.5547 43.8049 41.697 42.6187 43.147 42.6187C44.6408 42.6187 45.8271 43.8049 45.8271 45.2988V51.5817C45.8271 51.9772 45.4756 52.2847 45.0802 52.2847Z" fill="#171A1F"/>
<path fill-rule="evenodd" clip-rule="evenodd" d="M37.3905 54.3933C36.9951 54.3933 36.6875 54.0857 36.6875 53.6903V38.0488C36.6875 36.5549 37.8738 35.3687 39.3237 35.3687C40.7736 35.3687 42.0038 36.5549 42.0038 38.0488V50.8344C42.0038 51.2298 41.6524 51.5374 41.2569 51.5374C40.8615 51.5374 40.5539 51.2298 40.5539 50.8344V38.0488C40.5539 37.3897 39.9828 36.8186 39.3237 36.8186C38.7086 36.8186 38.1374 37.3897 38.1374 38.0488V53.6903C38.1374 54.0857 37.7859 54.3933 37.3905 54.3933Z" fill="#171A1F"/>
<path fill-rule="evenodd" clip-rule="evenodd" d="M51.1405 63.6202C50.9208 63.6202 50.6572 63.4884 50.5254 63.2248C50.3057 62.8733 50.4375 62.4339 50.789 62.2582C51.5799 61.7749 52.0632 60.9401 52.0632 60.0614V59.9735C52.0632 59.5781 52.3707 59.2266 52.7661 59.2266C53.2055 59.2266 53.5131 59.5781 53.5131 59.9735V60.0614C53.5131 61.4673 52.7661 62.7854 51.5359 63.4884C51.4041 63.5763 51.2723 63.6202 51.1405 63.6202Z" fill="#171A1F"/>
<path fill-rule="evenodd" clip-rule="evenodd" d="M51.1405 67.9696C50.7451 67.9696 50.4375 67.6181 50.4375 67.2226V62.8729C50.4375 62.4775 50.7451 62.126 51.1405 62.126C51.5799 62.126 51.8874 62.4775 51.8874 62.8729V67.2226C51.8874 67.6181 51.5359 67.9696 51.1405 67.9696Z" fill="#171A1F"/>
<path fill-rule="evenodd" clip-rule="evenodd" d="M38.0084 64.3671C37.9644 64.3671 37.9205 64.3671 37.8766 64.3232C35.2843 63.796 34.0541 60.8961 33.5708 59.1826C33.3511 58.4357 33.1753 57.7766 33.0874 57.0297C32.6481 54.042 32.0769 52.4163 31.6815 51.6255H31.6375C31.5936 51.4497 31.4179 51.23 31.286 50.9664C30.7149 50.1316 29.8801 48.9014 30.8027 47.5833C31.1542 47.0121 31.7254 46.7046 32.3845 46.6606C33.6147 46.6167 34.8889 47.5833 35.46 48.1984C37.4811 50.3513 38.0962 53.4269 38.0962 53.5587C38.1841 53.9541 37.9205 54.3056 37.5251 54.3935C37.1296 54.4814 36.7781 54.2177 36.6903 53.8223C36.6903 53.7784 36.1191 51.0543 34.3616 49.209C33.8344 48.6817 32.9996 48.1105 32.4284 48.1545C32.2527 48.1545 32.1208 48.2423 31.989 48.4181C31.6815 48.8575 31.9012 49.2968 32.4723 50.1756C32.6481 50.4392 32.8238 50.7028 32.9556 51.0104C33.6147 52.2845 34.1419 54.2617 34.4934 56.81V56.8539C34.5813 57.513 34.7131 58.0842 34.9328 58.7432C35.3282 60.1492 36.2509 62.5218 38.1402 62.8733C38.5356 62.9612 38.7992 63.3566 38.7114 63.752C38.6674 64.1035 38.3599 64.3671 38.0084 64.3671Z" fill="#171A1F"/>
<path fill-rule="evenodd" clip-rule="evenodd" d="M38.0077 67.9697C37.6122 67.9697 37.3047 67.6182 37.3047 67.2228V63.62C37.3047 63.2245 37.6122 62.873 38.0077 62.873C38.447 62.873 38.7546 63.2245 38.7546 63.62V67.2228C38.7546 67.6182 38.4031 67.9697 38.0077 67.9697Z" fill="#171A1F"/>
<path fill-rule="evenodd" clip-rule="evenodd" d="M32.8636 53.471C32.6878 53.471 32.556 53.427 32.3803 53.2952C32.0727 53.0316 32.0727 52.5922 32.3363 52.2847C33.3469 51.0545 32.4242 49.2531 31.4576 47.935C31.2379 47.6274 31.2819 47.188 31.5894 46.9244C31.9409 46.7047 32.3803 46.7487 32.6439 47.0562C34.4453 49.5167 34.7529 51.7135 33.4348 53.2074C33.303 53.427 33.0833 53.471 32.8636 53.471Z" fill="#171A1F"/>
<path fill-rule="evenodd" clip-rule="evenodd" d="M51.5837 71.705H37.5679C36.3816 71.705 35.3711 70.6945 35.3711 69.4643V69.0688C35.3711 67.6629 36.5574 66.4766 37.9634 66.4766H40.7314C41.1707 66.4766 41.4783 66.8281 41.4783 67.2235C41.4783 67.6189 41.1707 67.9704 40.7314 67.9704H37.9634C37.3482 67.9704 36.821 68.4537 36.821 69.0688V69.4643C36.821 69.8597 37.1725 70.2112 37.5679 70.2112H51.5837C52.0231 70.2112 52.3746 69.8597 52.3746 69.4643V69.0688C52.3746 68.4977 51.8034 67.9704 51.1883 67.9704C50.7929 67.9704 50.4853 67.6189 50.4853 67.2235C50.4853 66.8281 50.7929 66.4766 51.1883 66.4766C52.6382 66.4766 53.8245 67.6629 53.8245 69.0688V69.4643C53.8245 70.6945 52.814 71.705 51.5837 71.705Z" fill="#171A1F"/>
<path fill-rule="evenodd" clip-rule="evenodd" d="M51.3654 75H37.7889C37.3935 75 37.0859 74.6485 37.0859 74.2531V70.9579C37.0859 70.5624 37.3935 70.2109 37.7889 70.2109C38.2283 70.2109 38.5358 70.5624 38.5358 70.9579V73.5062H50.6624V70.9579C50.6624 70.5624 50.9699 70.2109 51.3654 70.2109C51.8047 70.2109 52.1123 70.5624 52.1123 70.9579V74.2531C52.1123 74.6485 51.7608 75 51.3654 75Z" fill="#171A1F"/>
<path fill-rule="evenodd" clip-rule="evenodd" d="M51.1829 67.9704H48.371C47.9755 67.9704 47.668 67.6189 47.668 67.2235C47.668 66.8281 47.9755 66.4766 48.371 66.4766H51.1829C51.6223 66.4766 51.9298 66.8281 51.9298 67.2235C51.9298 67.6189 51.5783 67.9704 51.1829 67.9704Z" fill="#171A1F"/>
<path fill-rule="evenodd" clip-rule="evenodd" d="M41.2147 75C40.8193 75 40.5117 74.6485 40.5117 74.2531V70.9579C40.5117 70.5624 40.8193 70.2109 41.2147 70.2109C41.6541 70.2109 41.9616 70.5624 41.9616 70.9579V74.2531C41.9616 74.6485 41.6101 75 41.2147 75Z" fill="#171A1F"/>
<path fill-rule="evenodd" clip-rule="evenodd" d="M59.0107 65.4659H51.146C50.7506 65.4659 50.443 65.1144 50.443 64.719C50.443 64.3236 50.7506 63.9721 51.146 63.9721H59.0107C60.2409 63.9721 61.2075 63.0055 61.2075 61.7753V21.6171L47.1917 7.55733H22.1477C20.9175 7.55733 19.9069 8.52394 19.9069 9.75417V61.7753C19.9069 62.9615 20.9175 63.9721 22.1477 63.9721H38.0089C38.4483 63.9721 38.7558 64.2797 38.7558 64.719C38.7558 65.1144 38.4483 65.422 38.0089 65.422H22.1038C20.0827 65.422 18.457 63.7963 18.457 61.7753V9.75417C18.457 7.73308 20.0827 6.10742 22.1038 6.10742H47.4553C47.675 6.10742 47.8507 6.1953 47.9825 6.32711L62.4377 20.7823C62.5696 20.9141 62.6574 21.0898 62.6574 21.3095V61.7753C62.6574 63.7963 61.0318 65.4659 59.0107 65.4659Z" fill="#171A1F"/>
<path fill-rule="evenodd" clip-rule="evenodd" d="M55.0577 28.2517H26.0155C25.6201 28.2517 25.3125 27.9441 25.3125 27.5487C25.3125 27.1093 25.6201 26.8018 26.0155 26.8018H55.0577C55.4531 26.8018 55.8046 27.1093 55.8046 27.5487C55.8046 27.9441 55.4531 28.2517 55.0577 28.2517Z" fill="#171A1F"/>
<path fill-rule="evenodd" clip-rule="evenodd" d="M55.0577 34.007H26.0155C25.6201 34.007 25.3125 33.6995 25.3125 33.3041C25.3125 32.8647 25.6201 32.5571 26.0155 32.5571H55.0577C55.4531 32.5571 55.8046 32.8647 55.8046 33.3041C55.8046 33.6995 55.4531 34.007 55.0577 34.007Z" fill="#171A1F"/>
<path fill-rule="evenodd" clip-rule="evenodd" d="M19.1579 59.3146H15.9944C13.9733 59.3146 12.3477 57.645 12.3477 55.6679V3.64675C12.3477 1.62566 13.9733 0 15.9944 0H41.3459C41.5656 0 41.7413 0.0878735 41.8731 0.219684L47.9804 6.32689C48.244 6.63445 48.244 7.07382 47.9804 7.38137C47.6728 7.64499 47.2334 7.64499 46.9259 7.38137L41.0384 1.44991H16.0383C14.8081 1.44991 13.7976 2.41652 13.7976 3.64675V55.6679C13.7976 56.8542 14.7642 57.8208 15.9944 57.8208H19.1579C19.5972 57.8208 19.9048 58.1283 19.9048 58.5677C19.9048 58.9631 19.5972 59.3146 19.1579 59.3146Z" fill="#171A1F"/>
<path fill-rule="evenodd" clip-rule="evenodd" d="M48.2031 8.61133V18.4092C48.2031 19.5955 49.2137 20.5621 50.4 20.5621H60.1539L48.2031 8.61133Z" fill="#B0D0F6"/>
<path fill-rule="evenodd" clip-rule="evenodd" d="M26.0117 11.7754V18.8492H38.8412V11.7754H26.0117Z" fill="#B0D0F6"/>
</g>
<defs>
<clipPath id="clip0_434_3746">
<rect width="75" height="75" fill="white"/>
</clipPath>
</defs>
</svg>
