<svg width="21" height="21" viewBox="0 0 21 21" fill="none" xmlns="http://www.w3.org/2000/svg">
<path d="M17.9676 10.2911C17.9676 6.05279 14.5318 2.61698 10.2935 2.61698C6.05523 2.61698 2.61942 6.05279 2.61942 10.2911C2.61942 14.5294 6.05523 17.9652 10.2935 17.9652C14.5318 17.9652 17.9676 14.5294 17.9676 10.2911ZM19.673 10.2911C19.673 15.4712 15.4736 19.6705 10.2935 19.6705C5.11339 19.6705 0.914062 15.4712 0.914062 10.2911C0.914062 5.11095 5.11339 0.911621 10.2935 0.911621C15.4736 0.911621 19.673 5.11095 19.673 10.2911Z" fill="#171A1F"/>
<path d="M9.45312 5.16029C9.45312 4.68938 9.83487 4.30762 10.3058 4.30762C10.7767 4.30762 11.1585 4.68938 11.1585 5.16029L11.1585 9.74924L14.0979 11.219L14.1736 11.2622C14.5388 11.4936 14.6767 11.9682 14.4792 12.3631C14.2818 12.758 13.8192 12.9327 13.4151 12.7794L13.3351 12.7444L9.9244 11.0391C9.6356 10.8946 9.45312 10.5994 9.45312 10.2764L9.45312 5.16029Z" fill="#171A1F"/>
</svg>
