<svg width="21" height="21" viewBox="0 0 21 21" fill="none" xmlns="http://www.w3.org/2000/svg">
<path d="M17.1138 11.1728C17.1138 10.7018 16.7321 10.3201 16.2611 10.3201L4.32366 10.3201C3.85274 10.3201 3.47098 10.7018 3.47098 11.1728L3.47098 17.1415C3.47098 17.6125 3.85274 17.9942 4.32366 17.9942L16.2611 17.9942C16.7321 17.9942 17.1138 17.6125 17.1138 17.1415V11.1728ZM18.8192 17.1415C18.8192 18.5543 17.674 19.6996 16.2611 19.6996L4.32366 19.6996C2.9109 19.6996 1.76562 18.5543 1.76562 17.1415L1.76562 11.1728C1.76562 9.75998 2.9109 8.61475 4.32366 8.61475L16.2611 8.61475C17.674 8.61475 18.8192 9.75998 18.8192 11.1728L18.8192 17.1415Z" fill="#171A1F"/>
<path d="M13.7026 9.4091V5.99839C13.7026 5.09381 13.343 4.22654 12.7033 3.58692C12.0637 2.94728 11.1965 2.58768 10.2918 2.58768C9.38724 2.58768 8.52 2.94728 7.88037 3.58692C7.24074 4.22654 6.88114 5.09381 6.88114 5.99839V9.4091C6.88114 9.88004 6.49938 10.2618 6.02846 10.2618C5.55754 10.2618 5.17578 9.88004 5.17578 9.4091L5.17578 5.99839C5.17578 4.64153 5.71518 3.34062 6.67463 2.38117C7.63408 1.42172 8.93498 0.882324 10.2918 0.882324C11.6487 0.882324 12.9496 1.42172 13.9091 2.38117C14.8685 3.34062 15.4079 4.64153 15.4079 5.99839V9.4091C15.4079 9.88004 15.0262 10.2618 14.5552 10.2618C14.0843 10.2618 13.7026 9.88004 13.7026 9.4091Z" fill="#171A1F"/>
</svg>
