<svg width="21" height="21" viewBox="0 0 21 21" fill="none" xmlns="http://www.w3.org/2000/svg">
<path d="M16.26 5.17452C14.2822 5.17452 11.9716 4.03484 10.3854 2.65063C10.3592 2.6282 10.3258 2.61649 10.2913 2.61649C10.2568 2.61649 10.2234 2.62904 10.1972 2.65146L10.1964 2.65063C8.66873 3.98249 6.44512 5.10248 4.50907 5.17119L4.32254 5.17452L4.32254 11.1433L4.33004 11.4947C4.40595 13.2217 5.04433 14.5019 6.01624 15.4974C6.94371 16.4473 8.20483 17.167 9.6551 17.729L10.288 17.9605L10.3071 17.9663C12.0168 17.3697 13.5083 16.5847 14.5664 15.4991C15.6026 14.4359 16.26 13.0497 16.26 11.1433V5.17452ZM17.9654 11.1433C17.9654 13.5002 17.1306 15.3123 15.7879 16.6899C14.4684 18.0436 12.6962 18.9407 10.8616 19.5801L10.855 19.5826C10.49 19.7063 10.0941 19.7019 9.73176 19.5718C9.72673 19.57 9.72178 19.5685 9.71675 19.5668C9.71539 19.5663 9.71385 19.5665 9.71257 19.566V19.5651C7.87995 18.9303 6.11279 18.0373 4.79634 16.689C3.53622 15.3984 2.72392 13.7255 2.62718 11.5796L2.61719 11.1433L2.61719 5.17452C2.61729 4.72237 2.79708 4.28851 3.11681 3.96878C3.4366 3.64909 3.87034 3.46916 4.32254 3.46916L4.5965 3.45917C5.99249 3.35641 7.7789 2.49931 9.08219 1.36079L9.08969 1.35496L9.21879 1.25337C9.53087 1.0314 9.90562 0.911133 10.2913 0.911133C10.677 0.911133 11.0517 1.0314 11.3638 1.25337L11.4929 1.35496L11.5004 1.36079L11.7685 1.58644C13.1378 2.69089 14.9194 3.46916 16.26 3.46916C16.7122 3.46916 17.146 3.64909 17.4658 3.96878C17.7855 4.28851 17.9653 4.72237 17.9654 5.17452V11.1433Z" fill="#171A1F"/>
<path d="M9.4375 10.2761L9.4375 6.86537C9.4375 6.39446 9.81924 6.0127 10.2902 6.0127C10.7611 6.0127 11.1429 6.39446 11.1429 6.86537L11.1429 10.2761C11.1429 10.747 10.7611 11.1288 10.2902 11.1288C9.81924 11.1288 9.4375 10.747 9.4375 10.2761Z" fill="#171A1F"/>
<path d="M10.2985 12.8638L10.3859 12.8679C10.8159 12.9116 11.1512 13.2749 11.1512 13.7164C11.1512 14.158 10.8159 14.5213 10.3859 14.5649L10.2985 14.5691H10.2902C9.81924 14.5691 9.4375 14.1874 9.4375 13.7164C9.4375 13.2455 9.81924 12.8638 10.2902 12.8638H10.2985Z" fill="#171A1F"/>
</svg>
